<?xml version="1.0" encoding="UTF-8"?>
<svg width="220px" height="80px" viewBox="0 0 220 80" version="1.1" 
    xmlns="http://www.w3.org/2000/svg" 
    xmlns:xlink="http://www.w3.org/1999/xlink">
    <script xmlns=""/>
    <!-- Generator: Sketch 43.2 (39069) - http://www.bohemiancoding.com/sketch -->
    <title>pocketcasts_large_dark</title>
    <desc>Created with Sketch.</desc>
    <defs>
        <path d="M23.9686277,47.9372549 C37.2061231,47.9372549 47.9372615,37.2061354 47.9372615,23.9686277 C47.9372615,10.7311077 37.2061231,0 23.9686277,0 C10.73112,0 0,10.7311077 0,23.9686277 C0,37.2061354 10.73112,47.9372549 23.9686277,47.9372549 L23.9686277,47.9372549 Z" id="path-1"/>
        <path d="M16.0335111,28.488597 C9.5675988,28.2722632 4.39227758,22.9625388 4.39214804,16.444015 C4.39201851,9.82822267 9.82820417,4.39203084 16.4439934,4.39215421 C22.9625172,4.39230843 28.2722354,9.56761731 28.4885661,16.0335327 C28.4962151,16.262771 28.6861136,16.4438022 28.9154599,16.4438022 L32.4213801,16.4438022 C32.6624157,16.4438022 32.8550592,16.2445214 32.8487365,16.003532 C32.6154115,7.14369287 25.3600372,0.0331250562 16.4439102,0.0330633708 C7.3650108,0.0330325281 0.0330047697,7.36502006 0.0330479494,16.4439287 C0.0331312247,25.3600434 7.14368053,32.6154238 16.0035536,32.848721 C16.2444998,32.8550901 16.4437806,32.6624342 16.4437806,32.4214016 L16.4437806,28.9154876 C16.4437806,28.6861228 16.2627494,28.496246 16.0335111,28.488597 L16.0335111,28.488597 Z M16.4439102,6.95635433 C11.1886293,6.9562618 6.95624021,11.1886046 6.95632657,16.4439287 C6.95640984,21.5339051 10.9647329,25.6876607 15.9970581,25.9209147 C16.2403977,25.932197 16.4437806,25.7371909 16.4437806,25.4936354 L16.4437806,22.7114607 C16.4437806,22.4927798 16.2653556,22.3000407 16.0471466,22.2854676 C12.9986391,22.0815295 10.589038,19.5441903 10.5889084,16.4440582 C10.588782,13.2061857 13.2061642,10.5888005 16.4440366,10.58893 C19.5441687,10.5890596 22.0815079,12.9986576 22.285446,16.0471651 C22.3000191,16.265334 22.4927613,16.4438022 22.7114422,16.4438022 L25.4936169,16.4438022 C25.7371817,16.4438022 25.9321692,16.2404193 25.9208808,15.9970797 C25.6876483,10.9647514 21.5338866,6.95641601 16.4439102,6.95635433 L16.4439102,6.95635433 Z" id="path-3"/>
    </defs>
    <g id="Page-1" stroke="none" stroke-width="1" fill="none" fill-rule="evenodd">
        <g id="pocketcasts_large_dark">
            <rect id="Rectangle-4" fill="#000000" x="0" y="0" width="220" height="80" rx="8"/>
            <path d="M73.872,57 L73.872,40.992 L80.304,40.992 C83.52,40.992 85.32,43.2 85.32,45.816 C85.32,48.432 83.472,50.64 80.304,50.64 L75.864,50.64 L75.864,57 L73.872,57 Z M83.256,45.816 C83.256,44.016 81.96,42.768 80.064,42.768 L75.864,42.768 L75.864,48.864 L80.064,48.864 C81.96,48.864 83.256,47.616 83.256,45.816 Z M92.64,57.288 C89.112,57.288 86.904,54.552 86.904,51.192 C86.904,47.832 89.112,45.12 92.64,45.12 C96.168,45.12 98.376,47.832 98.376,51.192 C98.376,54.552 96.168,57.288 92.64,57.288 Z M92.64,55.68 C95.112,55.68 96.48,53.568 96.48,51.192 C96.48,48.84 95.112,46.728 92.64,46.728 C90.168,46.728 88.776,48.84 88.776,51.192 C88.776,53.568 90.168,55.68 92.64,55.68 Z M100.632,51.192 C100.632,54.648 102.96,57.288 106.416,57.288 C108.528,57.288 109.776,56.424 110.664,55.272 L109.464,54.168 C108.696,55.2 107.712,55.68 106.512,55.68 C104.04,55.68 102.504,53.76 102.504,51.192 C102.504,48.624 104.04,46.728 106.512,46.728 C107.712,46.728 108.696,47.184 109.464,48.24 L110.664,47.136 C109.776,45.984 108.528,45.12 106.416,45.12 C102.96,45.12 100.632,47.76 100.632,51.192 Z M121.41,57 L123.714,57 L118.554,50.664 L123.69,45.408 L121.41,45.408 L115.314,51.576 L115.314,40.992 L113.514,40.992 L113.514,57 L115.314,57 L115.314,53.688 L117.234,51.792 L121.41,57 Z M124.626,51.192 C124.626,47.832 127.026,45.12 130.338,45.12 C133.842,45.12 135.906,47.856 135.906,51.336 L135.906,51.792 L126.522,51.792 C126.666,53.976 128.202,55.8 130.698,55.8 C132.018,55.8 133.362,55.272 134.274,54.336 L135.138,55.512 C133.986,56.664 132.426,57.288 130.53,57.288 C127.098,57.288 124.626,54.816 124.626,51.192 Z M130.314,46.608 C127.842,46.608 126.618,48.696 126.522,50.472 L134.13,50.472 C134.106,48.744 132.954,46.608 130.314,46.608 Z M141.738,57.288 C142.794,57.288 143.442,56.976 143.898,56.544 L143.37,55.2 C143.13,55.464 142.65,55.68 142.146,55.68 C141.354,55.68 140.97,55.056 140.97,54.192 L140.97,46.992 L143.322,46.992 L143.322,45.408 L140.97,45.408 L140.97,42.24 L139.17,42.24 L139.17,45.408 L137.25,45.408 L137.25,46.992 L139.17,46.992 L139.17,54.576 C139.17,56.304 140.034,57.288 141.738,57.288 Z M159.642,57.288 C162.546,57.288 164.466,55.944 165.81,54.12 L164.106,53.184 C163.194,54.552 161.538,55.512 159.642,55.512 C156.21,55.512 153.546,52.8 153.546,49.008 C153.546,45.192 156.21,42.504 159.642,42.504 C161.538,42.504 163.194,43.488 164.106,44.832 L165.786,43.896 C164.514,42.096 162.546,40.728 159.642,40.728 C155.106,40.728 151.482,44.088 151.482,49.008 C151.482,53.928 155.106,57.288 159.642,57.288 Z M175.53,57 L175.53,55.68 C174.57,56.736 173.25,57.288 171.69,57.288 C169.722,57.288 167.634,55.968 167.634,53.448 C167.634,50.856 169.722,49.632 171.69,49.632 C173.274,49.632 174.594,50.136 175.53,51.216 L175.53,49.128 C175.53,47.568 174.282,46.68 172.602,46.68 C171.21,46.68 170.082,47.184 169.05,48.288 L168.21,47.04 C169.458,45.744 170.946,45.12 172.842,45.12 C175.29,45.12 177.33,46.224 177.33,49.032 L177.33,57 L175.53,57 Z M175.53,54.552 L175.53,52.368 C174.834,51.408 173.61,50.928 172.338,50.928 C170.658,50.928 169.482,51.984 169.482,53.472 C169.482,54.936 170.658,55.992 172.338,55.992 C173.61,55.992 174.834,55.512 175.53,54.552 Z M179.922,55.464 C181.098,56.712 182.706,57.288 184.602,57.288 C187.602,57.288 189.162,55.728 189.162,53.784 C189.162,51.216 186.834,50.64 184.818,50.184 C183.306,49.824 181.986,49.464 181.986,48.336 C181.986,47.304 182.97,46.584 184.554,46.584 C186.042,46.584 187.314,47.208 188.01,48.048 L188.85,46.8 C187.914,45.864 186.522,45.12 184.554,45.12 C181.794,45.12 180.234,46.656 180.234,48.456 C180.234,50.856 182.466,51.384 184.434,51.84 C185.994,52.224 187.41,52.632 187.41,53.904 C187.41,55.032 186.45,55.824 184.674,55.824 C183.09,55.824 181.626,55.056 180.858,54.168 L179.922,55.464 Z M195.018,57.288 C196.074,57.288 196.722,56.976 197.178,56.544 L196.65,55.2 C196.41,55.464 195.93,55.68 195.426,55.68 C194.634,55.68 194.25,55.056 194.25,54.192 L194.25,46.992 L196.602,46.992 L196.602,45.408 L194.25,45.408 L194.25,42.24 L192.45,42.24 L192.45,45.408 L190.53,45.408 L190.53,46.992 L192.45,46.992 L192.45,54.576 C192.45,56.304 193.314,57.288 195.018,57.288 Z M198.138,55.464 C199.314,56.712 200.922,57.288 202.818,57.288 C205.818,57.288 207.378,55.728 207.378,53.784 C207.378,51.216 205.05,50.64 203.034,50.184 C201.522,49.824 200.202,49.464 200.202,48.336 C200.202,47.304 201.186,46.584 202.77,46.584 C204.258,46.584 205.53,47.208 206.226,48.048 L207.066,46.8 C206.13,45.864 204.738,45.12 202.77,45.12 C200.01,45.12 198.45,46.656 198.45,48.456 C198.45,50.856 200.682,51.384 202.65,51.84 C204.21,52.224 205.626,52.632 205.626,53.904 C205.626,55.032 204.666,55.824 202.89,55.824 C201.306,55.824 199.842,55.056 199.074,54.168 L198.138,55.464 Z" id="Pocket-Casts" fill="#FFFFFF"/>
            <g id="Group-13" transform="translate(14.000000, 16.000000)">
                <g id="Group-6">
                    <mask id="mask-2" fill="white">
                        <use xlink:href="#path-1"/>
                    </mask>
                    <g id="Clip-5"/>
                    <polygon id="Fill-4" fill="#F44336" mask="url(#mask-2)" points="-1.53846154 -1.53846154 49.4757231 -1.53846154 49.4757231 49.4757163 -1.53846154 49.4757163"/>
                </g>
                <g id="Group-9" transform="translate(7.550562, 7.550562)">
                    <mask id="mask-4" fill="white">
                        <use xlink:href="#path-3"/>
                    </mask>
                    <g id="Clip-8"/>
                    <polygon id="Fill-7" fill="#FEFEFE" mask="url(#mask-4)" points="-1.50908688 -1.50907146 34.3910255 -1.50907146 34.3910255 34.3910101 -1.50908688 34.3910101"/>
                </g>
            </g>
            <path d="M72.392,29.684 C73.218,30.566 74.464,31.168 76.186,31.168 C78.706,31.168 79.798,29.838 79.798,28.284 C79.798,26.254 77.964,25.778 76.424,25.386 C75.318,25.106 74.366,24.868 74.366,24.14 C74.366,23.44 74.982,22.978 75.948,22.978 C76.928,22.978 77.922,23.314 78.65,24.042 L79.588,22.824 C78.72,21.984 77.544,21.522 76.088,21.522 C74.044,21.522 72.686,22.712 72.686,24.252 C72.686,26.226 74.478,26.674 76.004,27.052 C77.138,27.346 78.132,27.598 78.132,28.438 C78.132,29.054 77.6,29.712 76.256,29.712 C74.954,29.712 73.946,29.11 73.302,28.424 L72.392,29.684 Z M81.73,27.318 C81.73,29.614 83.06,31.168 85.776,31.168 C88.478,31.168 89.808,29.628 89.808,27.304 L89.808,21.662 L88.156,21.662 L88.156,27.262 C88.156,28.746 87.33,29.712 85.776,29.712 C84.208,29.712 83.382,28.746 83.382,27.262 L83.382,21.662 L81.73,21.662 L81.73,27.318 Z M92.216,31 L92.216,21.662 L96.808,21.662 C98.516,21.662 99.468,22.726 99.468,24.042 C99.468,25.218 98.712,26.002 97.844,26.184 C98.838,26.338 99.65,27.332 99.65,28.48 C99.65,29.922 98.684,31 96.934,31 L92.216,31 Z M93.854,25.526 L96.472,25.526 C97.312,25.526 97.788,25.022 97.788,24.322 C97.788,23.622 97.312,23.104 96.472,23.104 L93.854,23.104 L93.854,25.526 Z M93.854,29.558 L96.542,29.558 C97.438,29.558 97.97,29.068 97.97,28.256 C97.97,27.556 97.48,26.968 96.542,26.968 L93.854,26.968 L93.854,29.558 Z M101.106,29.684 C101.932,30.566 103.178,31.168 104.9,31.168 C107.42,31.168 108.512,29.838 108.512,28.284 C108.512,26.254 106.678,25.778 105.138,25.386 C104.032,25.106 103.08,24.868 103.08,24.14 C103.08,23.44 103.696,22.978 104.662,22.978 C105.642,22.978 106.636,23.314 107.364,24.042 L108.302,22.824 C107.434,21.984 106.258,21.522 104.802,21.522 C102.758,21.522 101.4,22.712 101.4,24.252 C101.4,26.226 103.192,26.674 104.718,27.052 C105.852,27.346 106.846,27.598 106.846,28.438 C106.846,29.054 106.314,29.712 104.97,29.712 C103.668,29.712 102.66,29.11 102.016,28.424 L101.106,29.684 Z M114.854,31.168 C116.814,31.168 117.962,30.188 118.676,29.068 L117.276,28.354 C116.828,29.138 115.932,29.712 114.854,29.712 C113.076,29.712 111.704,28.298 111.704,26.338 C111.704,24.378 113.076,22.964 114.854,22.964 C115.932,22.964 116.828,23.552 117.276,24.322 L118.676,23.608 C117.976,22.488 116.814,21.508 114.854,21.508 C112.166,21.508 110.024,23.468 110.024,26.338 C110.024,29.208 112.166,31.168 114.854,31.168 Z M125.746,31 L123.674,27.514 L122.05,27.514 L122.05,31 L120.412,31 L120.412,21.662 L124.514,21.662 C126.362,21.662 127.566,22.866 127.566,24.588 C127.566,26.254 126.474,27.15 125.354,27.332 L127.636,31 L125.746,31 Z M125.886,24.588 C125.886,23.692 125.214,23.104 124.29,23.104 L122.05,23.104 L122.05,26.072 L124.29,26.072 C125.214,26.072 125.886,25.484 125.886,24.588 Z M129.624,31 L131.262,31 L131.262,21.662 L129.624,21.662 L129.624,31 Z M133.67,31 L133.67,21.662 L138.262,21.662 C139.97,21.662 140.922,22.726 140.922,24.042 C140.922,25.218 140.166,26.002 139.298,26.184 C140.292,26.338 141.104,27.332 141.104,28.48 C141.104,29.922 140.138,31 138.388,31 L133.67,31 Z M135.308,25.526 L137.926,25.526 C138.766,25.526 139.242,25.022 139.242,24.322 C139.242,23.622 138.766,23.104 137.926,23.104 L135.308,23.104 L135.308,25.526 Z M135.308,29.558 L137.996,29.558 C138.892,29.558 139.424,29.068 139.424,28.256 C139.424,27.556 138.934,26.968 137.996,26.968 L135.308,26.968 L135.308,29.558 Z M143.162,31 L149.56,31 L149.56,29.558 L144.8,29.558 L144.8,26.968 L149.462,26.968 L149.462,25.526 L144.8,25.526 L144.8,23.104 L149.56,23.104 L149.56,21.662 L143.162,21.662 L143.162,31 Z M155.678,31 L157.316,31 L157.316,21.662 L155.678,21.662 L155.678,31 Z M166.234,31 L167.816,31 L167.816,21.662 L166.178,21.662 L166.178,28.284 L161.404,21.662 L159.724,21.662 L159.724,31 L161.362,31 L161.362,24.196 L166.234,31 Z" id="SUBSCRIBE-IN" fill="#FFFFFF" opacity="0.6"/>
        </g>
    </g>
</svg>